<svg xmlns="http://www.w3.org/2000/svg" viewBox="0 0 128 128" width="128" height="128">
  <!-- Left cherry stem -->
  <path d="M44 72 C42 60 50 44 60 36" stroke="#16A34A" stroke-width="3" stroke-linecap="round" fill="none"/>
  <!-- Right cherry stem -->
  <path d="M84 72 C86 60 78 44 60 36" stroke="#16A34A" stroke-width="3" stroke-linecap="round" fill="none"/>
  <!-- Center stem up -->
  <path d="M60 36 C60 28 62 22 66 16" stroke="#16A34A" stroke-width="3" stroke-linecap="round" fill="none"/>
  <!-- Leaf -->
  <path d="M66 16 C72 10 84 12 82 22 C80 30 70 30 66 16 Z" fill="#22C55E"/>
  <path d="M66 16 C76 18 78 26 72 28" stroke="#16A34A" stroke-width="1.5" stroke-linecap="round" fill="none"/>
  <!-- Left cherry body -->
  <circle cx="44" cy="84" r="16" fill="#DC2626"/>
  <!-- Left cherry highlight -->
  <circle cx="39" cy="78" r="4" fill="#EF4444" opacity="0.6"/>
  <circle cx="37" cy="76" r="2" fill="white" opacity="0.35"/>
  <!-- Right cherry body -->
  <circle cx="84" cy="84" r="16" fill="#DC2626"/>
  <!-- Right cherry highlight -->
  <circle cx="79" cy="78" r="4" fill="#EF4444" opacity="0.6"/>
  <circle cx="77" cy="76" r="2" fill="white" opacity="0.35"/>
</svg>
